<mxfile host="Electron" modified="2024-03-27T15:24:39.552Z" agent="Mozilla/5.0 (Windows NT 10.0; Win64; x64) AppleWebKit/537.36 (KHTML, like Gecko) draw.io/24.1.0 Chrome/120.0.6099.109 Electron/28.1.0 Safari/537.36" etag="SQCP1aaKt-g6vzcUpX58" version="24.1.0" type="device">
  <diagram name="PÃ¡gina-1" id="E-DP9fMv0TR5NF7smadX">
    <mxGraphModel dx="1420" dy="822" grid="1" gridSize="6" guides="1" tooltips="1" connect="1" arrows="1" fold="1" page="1" pageScale="1" pageWidth="816" pageHeight="420" math="1" shadow="0">
      <root>
        <mxCell id="0" />
        <mxCell id="1" parent="0" />
        <mxCell id="GvZRkOdXiB6BV7RRrDBN-7" value="" style="endArrow=blockThin;html=1;rounded=0;strokeWidth=3;endFill=1;endSize=4;" parent="1" edge="1">
          <mxGeometry width="50" height="50" relative="1" as="geometry">
            <mxPoint x="24" y="315" as="sourcePoint" />
            <mxPoint x="792" y="315" as="targetPoint" />
          </mxGeometry>
        </mxCell>
        <mxCell id="GvZRkOdXiB6BV7RRrDBN-8" value="&lt;font face=&quot;SFMono-Regular, Menlo, Monaco, Consolas, Liberation Mono, Courier New, monospace&quot;&gt;\(0\)&lt;/font&gt;" style="text;whiteSpace=wrap;html=1;align=center;verticalAlign=middle;fontColor=#000000;labelBackgroundColor=none;fontSize=20;" parent="1" vertex="1">
          <mxGeometry x="57" y="327" width="30" height="20" as="geometry" />
        </mxCell>
        <mxCell id="GvZRkOdXiB6BV7RRrDBN-9" value="" style="endArrow=none;html=1;rounded=0;strokeWidth=2;" parent="1" edge="1">
          <mxGeometry width="50" height="50" relative="1" as="geometry">
            <mxPoint x="72" y="325" as="sourcePoint" />
            <mxPoint x="72" y="315" as="targetPoint" />
          </mxGeometry>
        </mxCell>
        <mxCell id="RTNXhDmWfWTCPxxZ_nrD-1" value="" style="endArrow=none;html=1;rounded=0;strokeWidth=2;" parent="1" edge="1">
          <mxGeometry width="50" height="50" relative="1" as="geometry">
            <mxPoint x="120" y="325" as="sourcePoint" />
            <mxPoint x="120" y="315" as="targetPoint" />
          </mxGeometry>
        </mxCell>
        <mxCell id="RTNXhDmWfWTCPxxZ_nrD-2" value="" style="endArrow=none;html=1;rounded=0;strokeWidth=2;" parent="1" edge="1">
          <mxGeometry width="50" height="50" relative="1" as="geometry">
            <mxPoint x="168" y="325" as="sourcePoint" />
            <mxPoint x="168" y="315" as="targetPoint" />
          </mxGeometry>
        </mxCell>
        <mxCell id="RTNXhDmWfWTCPxxZ_nrD-3" value="" style="endArrow=none;html=1;rounded=0;strokeWidth=2;" parent="1" edge="1">
          <mxGeometry width="50" height="50" relative="1" as="geometry">
            <mxPoint x="216" y="325" as="sourcePoint" />
            <mxPoint x="216" y="315" as="targetPoint" />
          </mxGeometry>
        </mxCell>
        <mxCell id="RTNXhDmWfWTCPxxZ_nrD-4" value="" style="endArrow=none;html=1;rounded=0;strokeWidth=2;" parent="1" edge="1">
          <mxGeometry width="50" height="50" relative="1" as="geometry">
            <mxPoint x="264" y="325" as="sourcePoint" />
            <mxPoint x="264" y="315" as="targetPoint" />
          </mxGeometry>
        </mxCell>
        <mxCell id="RTNXhDmWfWTCPxxZ_nrD-5" value="" style="endArrow=none;html=1;rounded=0;strokeWidth=2;" parent="1" edge="1">
          <mxGeometry width="50" height="50" relative="1" as="geometry">
            <mxPoint x="312" y="325" as="sourcePoint" />
            <mxPoint x="312" y="315" as="targetPoint" />
          </mxGeometry>
        </mxCell>
        <mxCell id="RTNXhDmWfWTCPxxZ_nrD-6" value="" style="endArrow=none;html=1;rounded=0;strokeWidth=2;" parent="1" edge="1">
          <mxGeometry width="50" height="50" relative="1" as="geometry">
            <mxPoint x="360" y="325" as="sourcePoint" />
            <mxPoint x="360" y="315" as="targetPoint" />
          </mxGeometry>
        </mxCell>
        <mxCell id="RTNXhDmWfWTCPxxZ_nrD-7" value="&lt;font face=&quot;SFMono-Regular, Menlo, Monaco, Consolas, Liberation Mono, Courier New, monospace&quot;&gt;\(1\)&lt;/font&gt;" style="text;whiteSpace=wrap;html=1;align=center;verticalAlign=middle;fontColor=#000000;labelBackgroundColor=none;fontSize=20;" parent="1" vertex="1">
          <mxGeometry x="106" y="327" width="30" height="20" as="geometry" />
        </mxCell>
        <mxCell id="RTNXhDmWfWTCPxxZ_nrD-8" value="&lt;font face=&quot;SFMono-Regular, Menlo, Monaco, Consolas, Liberation Mono, Courier New, monospace&quot;&gt;\(2\)&lt;/font&gt;" style="text;whiteSpace=wrap;html=1;align=center;verticalAlign=middle;fontColor=#000000;labelBackgroundColor=none;fontSize=20;" parent="1" vertex="1">
          <mxGeometry x="153" y="327" width="30" height="20" as="geometry" />
        </mxCell>
        <mxCell id="RTNXhDmWfWTCPxxZ_nrD-9" value="&lt;font face=&quot;SFMono-Regular, Menlo, Monaco, Consolas, Liberation Mono, Courier New, monospace&quot;&gt;\(6\)&lt;/font&gt;" style="text;whiteSpace=wrap;html=1;align=center;verticalAlign=middle;fontColor=#000000;labelBackgroundColor=none;fontSize=20;" parent="1" vertex="1">
          <mxGeometry x="345" y="327" width="30" height="20" as="geometry" />
        </mxCell>
        <mxCell id="RTNXhDmWfWTCPxxZ_nrD-10" value="" style="endArrow=none;html=1;rounded=0;strokeWidth=2;" parent="1" edge="1">
          <mxGeometry width="50" height="50" relative="1" as="geometry">
            <mxPoint x="408" y="325" as="sourcePoint" />
            <mxPoint x="408" y="315" as="targetPoint" />
          </mxGeometry>
        </mxCell>
        <mxCell id="RTNXhDmWfWTCPxxZ_nrD-11" value="" style="endArrow=none;html=1;rounded=0;strokeWidth=2;" parent="1" edge="1">
          <mxGeometry width="50" height="50" relative="1" as="geometry">
            <mxPoint x="456" y="325" as="sourcePoint" />
            <mxPoint x="456" y="315" as="targetPoint" />
          </mxGeometry>
        </mxCell>
        <mxCell id="RTNXhDmWfWTCPxxZ_nrD-12" value="" style="endArrow=none;html=1;rounded=0;strokeWidth=2;" parent="1" edge="1">
          <mxGeometry width="50" height="50" relative="1" as="geometry">
            <mxPoint x="504" y="325" as="sourcePoint" />
            <mxPoint x="504" y="315" as="targetPoint" />
          </mxGeometry>
        </mxCell>
        <mxCell id="RTNXhDmWfWTCPxxZ_nrD-13" value="" style="endArrow=none;html=1;rounded=0;strokeWidth=2;" parent="1" edge="1">
          <mxGeometry width="50" height="50" relative="1" as="geometry">
            <mxPoint x="552" y="325" as="sourcePoint" />
            <mxPoint x="552" y="315" as="targetPoint" />
          </mxGeometry>
        </mxCell>
        <mxCell id="RTNXhDmWfWTCPxxZ_nrD-14" value="" style="endArrow=none;html=1;rounded=0;strokeWidth=2;" parent="1" edge="1">
          <mxGeometry width="50" height="50" relative="1" as="geometry">
            <mxPoint x="600" y="325" as="sourcePoint" />
            <mxPoint x="600" y="315" as="targetPoint" />
          </mxGeometry>
        </mxCell>
        <mxCell id="RTNXhDmWfWTCPxxZ_nrD-17" value="" style="endArrow=none;html=1;rounded=0;strokeWidth=2;" parent="1" edge="1">
          <mxGeometry width="50" height="50" relative="1" as="geometry">
            <mxPoint x="648" y="325" as="sourcePoint" />
            <mxPoint x="648" y="315" as="targetPoint" />
          </mxGeometry>
        </mxCell>
        <mxCell id="RTNXhDmWfWTCPxxZ_nrD-18" value="" style="endArrow=none;html=1;rounded=0;strokeWidth=2;" parent="1" edge="1">
          <mxGeometry width="50" height="50" relative="1" as="geometry">
            <mxPoint x="696" y="325" as="sourcePoint" />
            <mxPoint x="696" y="315" as="targetPoint" />
          </mxGeometry>
        </mxCell>
        <mxCell id="RTNXhDmWfWTCPxxZ_nrD-19" value="" style="endArrow=none;html=1;rounded=0;strokeWidth=2;" parent="1" edge="1">
          <mxGeometry width="50" height="50" relative="1" as="geometry">
            <mxPoint x="744" y="325" as="sourcePoint" />
            <mxPoint x="744" y="315" as="targetPoint" />
          </mxGeometry>
        </mxCell>
        <mxCell id="RTNXhDmWfWTCPxxZ_nrD-22" value="&lt;font face=&quot;SFMono-Regular, Menlo, Monaco, Consolas, Liberation Mono, Courier New, monospace&quot;&gt;\(14\)&lt;/font&gt;" style="text;whiteSpace=wrap;html=1;align=center;verticalAlign=middle;fontColor=#000000;labelBackgroundColor=none;fontSize=20;" parent="1" vertex="1">
          <mxGeometry x="729" y="327" width="30" height="20" as="geometry" />
        </mxCell>
        <mxCell id="RTNXhDmWfWTCPxxZ_nrD-23" value="" style="endArrow=blockThin;html=1;rounded=0;strokeWidth=3;endFill=1;endSize=4;" parent="1" edge="1">
          <mxGeometry width="50" height="50" relative="1" as="geometry">
            <mxPoint x="72" y="315" as="sourcePoint" />
            <mxPoint x="72" y="27" as="targetPoint" />
          </mxGeometry>
        </mxCell>
        <mxCell id="RTNXhDmWfWTCPxxZ_nrD-24" value="" style="endArrow=none;html=1;rounded=0;strokeWidth=2;" parent="1" edge="1">
          <mxGeometry width="50" height="50" relative="1" as="geometry">
            <mxPoint x="72" y="255" as="sourcePoint" />
            <mxPoint x="62" y="255" as="targetPoint" />
          </mxGeometry>
        </mxCell>
        <mxCell id="RTNXhDmWfWTCPxxZ_nrD-25" value="" style="endArrow=none;html=1;rounded=0;strokeWidth=2;" parent="1" edge="1">
          <mxGeometry width="50" height="50" relative="1" as="geometry">
            <mxPoint x="72" y="195" as="sourcePoint" />
            <mxPoint x="62" y="195" as="targetPoint" />
          </mxGeometry>
        </mxCell>
        <mxCell id="RTNXhDmWfWTCPxxZ_nrD-26" value="" style="endArrow=none;html=1;rounded=0;strokeWidth=2;" parent="1" edge="1">
          <mxGeometry width="50" height="50" relative="1" as="geometry">
            <mxPoint x="72" y="135" as="sourcePoint" />
            <mxPoint x="62" y="135" as="targetPoint" />
          </mxGeometry>
        </mxCell>
        <mxCell id="RTNXhDmWfWTCPxxZ_nrD-27" value="" style="endArrow=none;html=1;rounded=0;strokeWidth=2;" parent="1" edge="1">
          <mxGeometry width="50" height="50" relative="1" as="geometry">
            <mxPoint x="72" y="75" as="sourcePoint" />
            <mxPoint x="62" y="75" as="targetPoint" />
          </mxGeometry>
        </mxCell>
        <mxCell id="RTNXhDmWfWTCPxxZ_nrD-29" value="" style="verticalLabelPosition=bottom;verticalAlign=top;html=1;shape=mxgraph.basic.rect;fillColor2=none;strokeWidth=2;size=20;indent=5;fillColor=#E6E6E6;" parent="1" vertex="1">
          <mxGeometry x="72" y="75" width="48" height="240" as="geometry" />
        </mxCell>
        <mxCell id="RTNXhDmWfWTCPxxZ_nrD-30" value="" style="verticalLabelPosition=bottom;verticalAlign=top;html=1;shape=mxgraph.basic.rect;fillColor2=none;strokeWidth=2;size=20;indent=5;fillColor=#E6E6E6;" parent="1" vertex="1">
          <mxGeometry x="120" y="195" width="48" height="120" as="geometry" />
        </mxCell>
        <mxCell id="RTNXhDmWfWTCPxxZ_nrD-31" value="" style="verticalLabelPosition=bottom;verticalAlign=top;html=1;shape=mxgraph.basic.rect;fillColor2=none;strokeWidth=2;size=20;indent=5;fillColor=#E6E6E6;" parent="1" vertex="1">
          <mxGeometry x="168" y="279" width="192" height="36" as="geometry" />
        </mxCell>
        <mxCell id="RTNXhDmWfWTCPxxZ_nrD-32" value="" style="verticalLabelPosition=bottom;verticalAlign=top;html=1;shape=mxgraph.basic.rect;fillColor2=none;strokeWidth=2;size=20;indent=5;fillColor=#E6E6E6;" parent="1" vertex="1">
          <mxGeometry x="360" y="297" width="384" height="18" as="geometry" />
        </mxCell>
        <mxCell id="RTNXhDmWfWTCPxxZ_nrD-33" value="&lt;font face=&quot;SFMono-Regular, Menlo, Monaco, Consolas, Liberation Mono, Courier New, monospace&quot;&gt;\(0\text{,}4\)&lt;/font&gt;" style="text;whiteSpace=wrap;html=1;align=center;verticalAlign=middle;fontColor=#000000;labelBackgroundColor=none;fontSize=20;" parent="1" vertex="1">
          <mxGeometry x="81" y="51" width="30" height="20" as="geometry" />
        </mxCell>
        <mxCell id="RTNXhDmWfWTCPxxZ_nrD-34" value="&lt;font face=&quot;SFMono-Regular, Menlo, Monaco, Consolas, Liberation Mono, Courier New, monospace&quot;&gt;\(0\text{,}2\)&lt;/font&gt;" style="text;whiteSpace=wrap;html=1;align=center;verticalAlign=middle;fontColor=#000000;labelBackgroundColor=none;fontSize=20;" parent="1" vertex="1">
          <mxGeometry x="129" y="171" width="30" height="20" as="geometry" />
        </mxCell>
        <mxCell id="RTNXhDmWfWTCPxxZ_nrD-35" value="&lt;font face=&quot;SFMono-Regular, Menlo, Monaco, Consolas, Liberation Mono, Courier New, monospace&quot;&gt;\(0\text{,}05\)&lt;/font&gt;" style="text;whiteSpace=wrap;html=1;align=center;verticalAlign=middle;fontColor=#000000;labelBackgroundColor=none;fontSize=20;" parent="1" vertex="1">
          <mxGeometry x="249" y="255" width="30" height="20" as="geometry" />
        </mxCell>
        <mxCell id="RTNXhDmWfWTCPxxZ_nrD-36" value="&lt;font face=&quot;SFMono-Regular, Menlo, Monaco, Consolas, Liberation Mono, Courier New, monospace&quot;&gt;\(0\text{,}025\)&lt;/font&gt;" style="text;whiteSpace=wrap;html=1;align=center;verticalAlign=middle;fontColor=#000000;labelBackgroundColor=none;fontSize=20;" parent="1" vertex="1">
          <mxGeometry x="537" y="273" width="30" height="20" as="geometry" />
        </mxCell>
        <mxCell id="RTNXhDmWfWTCPxxZ_nrD-37" value="" style="shape=flexArrow;endArrow=classic;html=1;rounded=0;fillColor=#FF0000;endWidth=6.801426872770512;endSize=3.2551724137931033;width=4.137931034482759;" parent="1" edge="1">
          <mxGeometry width="50" height="50" relative="1" as="geometry">
            <mxPoint x="230" y="369" as="sourcePoint" />
            <mxPoint x="230" y="315" as="targetPoint" />
          </mxGeometry>
        </mxCell>
        <mxCell id="RTNXhDmWfWTCPxxZ_nrD-38" value="&lt;font face=&quot;SFMono-Regular, Menlo, Monaco, Consolas, Liberation Mono, Courier New, monospace&quot;&gt;\(\bar{x} \approx 3\text{,}3\)&lt;/font&gt;" style="text;whiteSpace=wrap;html=1;align=center;verticalAlign=middle;fontColor=#FF0000;labelBackgroundColor=none;fontSize=20;" parent="1" vertex="1">
          <mxGeometry x="249" y="374" width="30" height="20" as="geometry" />
        </mxCell>
        <mxCell id="RTNXhDmWfWTCPxxZ_nrD-47" value="" style="shape=flexArrow;endArrow=classic;html=1;rounded=0;fillColor=#FF0000;endWidth=6.801426872770512;endSize=3.2551724137931033;width=4.137931034482759;" parent="1" edge="1">
          <mxGeometry width="50" height="50" relative="1" as="geometry">
            <mxPoint x="144" y="369" as="sourcePoint" />
            <mxPoint x="144" y="315" as="targetPoint" />
          </mxGeometry>
        </mxCell>
        <mxCell id="RTNXhDmWfWTCPxxZ_nrD-48" value="&lt;font face=&quot;SFMono-Regular, Menlo, Monaco, Consolas, Liberation Mono, Courier New, monospace&quot;&gt;\(\tilde{x} \approx 1\text{,}5\)&lt;/font&gt;" style="text;whiteSpace=wrap;html=1;align=center;verticalAlign=middle;fontColor=#FF0000;labelBackgroundColor=none;fontSize=20;" parent="1" vertex="1">
          <mxGeometry x="155" y="374" width="30" height="20" as="geometry" />
        </mxCell>
        <mxCell id="KQaBjHNekfUcONMApyVw-1" value="&lt;font face=&quot;SFMono-Regular, Menlo, Monaco, Consolas, Liberation Mono, Courier New, monospace&quot;&gt;\(\breve{x} \approx 1\text{,}5\)&lt;/font&gt;" style="text;whiteSpace=wrap;html=1;align=center;verticalAlign=middle;fontColor=#0000FF;labelBackgroundColor=none;fontSize=20;fillColor=none;" vertex="1" parent="1">
          <mxGeometry x="53" y="374" width="30" height="20" as="geometry" />
        </mxCell>
        <mxCell id="KQaBjHNekfUcONMApyVw-2" value="" style="shape=flexArrow;endArrow=classic;html=1;rounded=0;fillColor=#0000FF;endWidth=6.801426872770512;endSize=3.2551724137931033;width=4.137931034482759;" edge="1" parent="1">
          <mxGeometry width="50" height="50" relative="1" as="geometry">
            <mxPoint x="96" y="369" as="sourcePoint" />
            <mxPoint x="96" y="315" as="targetPoint" />
          </mxGeometry>
        </mxCell>
      </root>
    </mxGraphModel>
  </diagram>
</mxfile>
